<svg width="393" height="114" viewBox="0 0 393 114" fill="none" xmlns="http://www.w3.org/2000/svg">
<path d="M6.50603 54.1023C6.84349 53.7633 7.03632 53.3273 7.03632 52.843C7.03632 52.3585 6.84349 51.9227 6.50603 51.5352C6.16855 51.1961 5.73468 51.0024 5.20437 51.0024C4.72229 51.0024 4.2884 51.1961 3.95094 51.5352C3.61349 51.9227 3.42065 52.3103 3.42065 52.843C3.42065 53.3273 3.61349 53.7633 3.95094 54.1023C4.2884 54.4897 4.72229 54.6351 5.20437 54.6351C5.73468 54.6835 6.16855 54.4897 6.50603 54.1023Z" fill="#007167"/>
<path d="M1.5909 59.5269C0.530299 60.6894 0 62.3845 0 64.6126V69.698H13.6914V66.5983H10.3649H8.62941H3.32642V64.9032C3.32642 63.5469 3.61567 62.5299 4.24239 61.8518C4.86912 61.1736 5.8333 60.8345 7.18314 60.8345H10.3167V65.1453H13.6431V57.7349H6.50821C4.2906 57.7349 2.65151 58.3161 1.5909 59.5269Z" fill="#007167"/>
<path d="M9.88151 54.6839C10.3636 54.6839 10.7975 54.4902 11.1349 54.1512C11.5206 53.7636 11.6652 53.3761 11.6652 52.8918C11.6652 52.4076 11.4724 51.9715 11.1349 51.584C10.7975 51.2452 10.3636 51.0513 9.88151 51.0513C9.54403 51.0513 9.25478 51.1482 8.96553 51.2934C8.67629 51.4873 8.43522 51.6809 8.2906 51.9715C8.09777 52.2621 8.04956 52.5527 8.04956 52.8918C8.04956 53.2309 8.14598 53.5215 8.2906 53.8121C8.48343 54.1027 8.67629 54.3448 8.96553 54.4902C9.25478 54.587 9.59224 54.6839 9.88151 54.6839Z" fill="#007167"/>
<path d="M20.2498 69.6013C20.2498 70.9573 19.9605 71.9746 19.3338 72.701C18.7071 73.4276 17.7911 73.8149 16.5859 73.8149H15.5735V76.9633H16.8269C19.0928 76.9633 20.7801 76.3336 21.889 75.0258C22.9977 73.7666 23.5763 71.9746 23.5763 69.698V57.7349H20.2498V69.6013Z" fill="#007167"/>
<path d="M58.1407 54.6839C58.6228 54.6839 59.0566 54.4902 59.4424 54.1512C59.7797 53.8121 59.9725 53.3761 59.9725 52.8918C59.9725 52.3591 59.7797 51.9231 59.4424 51.584C59.1049 51.2452 58.671 51.0513 58.1407 51.0513C57.6586 51.0513 57.2246 51.2452 56.8873 51.584C56.5497 51.9715 56.3569 52.4076 56.3569 52.8918C56.3569 53.3761 56.5497 53.8121 56.8873 54.1512C57.2246 54.4902 57.6586 54.6839 58.1407 54.6839Z" fill="#007167"/>
<path d="M101.386 66.599H96.6615H89.2855H87.116V64.613C87.116 62.3851 86.5856 60.69 85.5252 59.5276C84.4645 58.3652 82.8255 57.784 80.6079 57.784H73.4247V66.599H69.2305H61.8546H59.7815V57.784H56.5032V66.599H51.7307H44.3547H42.1851V57.784H35.002C32.7844 57.784 31.1453 58.3652 30.0847 59.5276C29.0242 60.69 28.4939 62.3851 28.4939 64.613V69.6987H38.8588C38.8588 70.7159 38.7623 71.5392 38.5695 72.1204C38.3768 72.7016 37.991 73.1376 37.4606 73.4282C36.9305 73.7188 36.1591 73.864 35.195 73.864H30.8078V76.9637H35.7253C38.0392 76.9637 39.6782 76.3342 40.6426 75.0749C41.6068 73.8155 42.1371 72.0235 42.1851 69.6502H44.4028H51.7787H61.9026H69.2788H89.3336H96.7095H104.761V50.3735H101.434V66.599H101.386ZM38.8106 66.599H31.7722V64.9036C31.7722 63.5476 32.0612 62.5306 32.6881 61.8524C33.3147 61.1743 34.2789 60.8352 35.6288 60.8352H38.7623V66.599H38.8106ZM83.7414 66.599H76.703V60.8352H79.8365C81.1862 60.8352 82.1504 61.1743 82.7772 61.8524C83.4039 62.5306 83.6931 63.5476 83.6931 64.9036V66.599H83.7414Z" fill="#007167"/>
<path d="M112.569 50.3735H109.243V69.6502H112.569V50.3735Z" fill="#007167"/>
<path d="M127.513 51.5352C127.175 51.8742 126.982 52.3103 126.982 52.843C126.982 53.3273 127.175 53.7633 127.513 54.1023C127.85 54.4897 128.284 54.6351 128.766 54.6351C129.248 54.6351 129.682 54.4412 130.068 54.1023C130.405 53.7148 130.598 53.3273 130.598 52.843C130.598 52.3585 130.405 51.9227 130.068 51.5352C129.73 51.1961 129.296 51.0024 128.766 51.0024C128.284 51.0024 127.85 51.1961 127.513 51.5352Z" fill="#007167"/>
<path d="M132.529 51.2463C132.24 51.4402 131.999 51.6339 131.854 51.9245C131.661 52.2151 131.613 52.5057 131.613 52.8447C131.613 53.1838 131.71 53.4744 131.854 53.765C132.047 54.0556 132.24 54.2977 132.529 54.4429C132.818 54.5883 133.108 54.6851 133.445 54.6851C133.927 54.6851 134.361 54.4914 134.699 54.1523C135.084 53.765 135.229 53.3775 135.229 52.8932C135.229 52.4087 135.036 51.9729 134.699 51.5854C134.361 51.2463 133.927 51.0526 133.445 51.0526C133.108 51.0042 132.818 51.1011 132.529 51.2463Z" fill="#007167"/>
<path d="M153.252 54.6839C153.734 54.6839 154.168 54.4902 154.554 54.1512C154.891 53.8121 155.084 53.3761 155.084 52.8918C155.084 52.3591 154.891 51.9231 154.554 51.584C154.216 51.2452 153.782 51.0513 153.252 51.0513C152.77 51.0513 152.336 51.2452 151.999 51.584C151.661 51.9715 151.468 52.4076 151.468 52.8918C151.468 53.3761 151.661 53.8121 151.999 54.1512C152.336 54.4902 152.77 54.6839 153.252 54.6839Z" fill="#007167"/>
<path d="M173.12 71.7817C172.783 71.7817 172.494 71.8785 172.204 72.0239C171.915 72.2175 171.674 72.4112 171.529 72.7018C171.337 72.9924 171.288 73.283 171.288 73.6221C171.288 73.9127 171.385 74.2033 171.529 74.4939C171.722 74.7845 171.915 74.9784 172.204 75.172C172.494 75.3174 172.783 75.4142 173.12 75.4142C173.458 75.4142 173.747 75.3174 174.036 75.172C174.326 75.0268 174.567 74.7845 174.711 74.4939C174.856 74.2033 174.952 73.9127 174.952 73.6221C174.952 73.0893 174.759 72.6535 174.422 72.266C174.036 71.9269 173.602 71.7817 173.12 71.7817Z" fill="#007167"/>
<path d="M173.604 57.735H170.326V66.55H164.3H156.924H154.851V57.735H151.573V66.55H146.8H139.424H138.363H137.255H133.928H132.145H126.89V64.8548C126.89 63.4988 127.179 62.4816 127.806 61.8034C128.433 61.1255 129.397 60.7864 130.746 60.7864H133.928V65.097H137.255V57.6865H130.072C127.854 57.6865 126.215 58.2677 125.154 59.4301C124.094 60.5925 123.563 62.2879 123.563 64.5158V69.6014H139.424H146.8H156.924H164.3H173.556V57.735H173.604Z" fill="#007167"/>
<path d="M168.442 71.7817C167.96 71.7817 167.526 71.9754 167.188 72.3145C166.851 72.7018 166.658 73.1378 166.658 73.6705C166.658 73.9611 166.754 74.2517 166.899 74.5423C167.044 74.8329 167.285 75.0268 167.574 75.2205C167.863 75.3657 168.152 75.4626 168.49 75.4626C168.972 75.4626 169.406 75.269 169.792 74.9299C170.129 74.5908 170.322 74.1548 170.322 73.6705C170.322 73.1378 170.129 72.7018 169.792 72.3145C169.358 71.9269 168.972 71.7817 168.442 71.7817Z" fill="#007167"/>
<path d="M233.912 66.5993H228.704H221.329H219.159V64.6136C219.159 62.3855 218.628 60.6904 217.568 59.528C216.507 58.3655 214.868 57.7843 212.651 57.7843H205.467V66.5993H201.273H193.897H191.68V64.4197C191.68 60.0122 189.559 57.7843 185.268 57.7843H179.627V60.884H184.496C185.846 60.884 186.811 61.1746 187.437 61.8043C188.064 62.434 188.353 63.3542 188.353 64.6136V66.5993H177.217V69.699H193.897H201.273H221.329H228.704H237.237V50.4224H233.912V66.5993ZM215.784 66.5993H208.746V60.8358H211.879C213.229 60.8358 214.242 61.1746 214.82 61.8528C215.447 62.5309 215.736 63.5479 215.736 64.9042V66.5993H215.784Z" fill="#007167"/>
<path d="M245.137 50.3735H241.812V69.6502H245.137V50.3735Z" fill="#007167"/>
<path d="M8.96553 21.7493C9.25478 21.8945 9.54403 21.9914 9.88151 21.9914C10.3636 21.9914 10.7975 21.7977 11.1349 21.4587C11.5206 21.1196 11.6652 20.6837 11.6652 20.1994C11.6652 19.715 11.4724 19.2791 11.1349 18.8917C10.7975 18.5526 10.3636 18.3589 9.88151 18.3589C9.54403 18.3589 9.25478 18.4557 8.96553 18.6011C8.67629 18.7948 8.43522 18.9885 8.2906 19.2791C8.09777 19.5697 8.04956 19.8603 8.04956 20.1994C8.04956 20.5384 8.14598 20.829 8.2906 21.1196C8.43522 21.3618 8.67629 21.604 8.96553 21.7493Z" fill="#007167"/>
<path d="M5.20437 22.0392C5.68647 22.0392 6.12035 21.8456 6.50603 21.5065C6.84349 21.1675 7.03632 20.7316 7.03632 20.2472C7.03632 19.7629 6.84349 19.327 6.50603 18.9395C6.16855 18.6005 5.73468 18.4067 5.20437 18.4067C4.72229 18.4067 4.2884 18.6005 3.95094 18.9395C3.56528 19.2786 3.42065 19.7145 3.42065 20.2472C3.42065 20.7316 3.61349 21.1675 3.95094 21.5065C4.2884 21.8456 4.72229 22.0392 5.20437 22.0392Z" fill="#007167"/>
<path d="M39.1898 22.0392C39.6719 22.0392 40.1057 21.8456 40.4915 21.5065C40.8288 21.1675 41.0216 20.7316 41.0216 20.2472C41.0216 19.7629 40.8288 19.327 40.4915 18.9395C40.154 18.6005 39.7201 18.4067 39.1898 18.4067C38.7077 18.4067 38.2739 18.6005 37.9363 18.9395C37.5988 19.2786 37.406 19.7145 37.406 20.2472C37.406 20.7316 37.5988 21.1675 37.9363 21.5065C38.3219 21.8456 38.7077 22.0392 39.1898 22.0392Z" fill="#007167"/>
<path d="M42.9542 21.7493C43.2435 21.8945 43.5328 21.9914 43.8704 21.9914C44.3524 21.9914 44.7863 21.7977 45.1238 21.4587C45.4611 21.1196 45.6539 20.6837 45.6539 20.1994C45.6539 19.715 45.4611 19.2791 45.1238 18.8917C44.7863 18.5526 44.3524 18.3589 43.8704 18.3589C43.5328 18.3589 43.2435 18.4557 42.9542 18.6011C42.6652 18.7948 42.4241 18.9885 42.2794 19.2791C42.0866 19.5697 42.0383 19.8603 42.0383 20.1994C42.0383 20.5384 42.1348 20.829 42.2794 21.1196C42.4241 21.3618 42.6652 21.604 42.9542 21.7493Z" fill="#007167"/>
<path d="M112.757 22.0392C113.239 22.0392 113.673 21.8456 114.059 21.5065C114.396 21.1675 114.589 20.7316 114.589 20.2472C114.589 19.7145 114.396 19.2786 114.059 18.9395C113.721 18.6005 113.288 18.4067 112.757 18.4067C112.275 18.4067 111.841 18.6005 111.504 18.9395C111.166 19.327 110.973 19.7629 110.973 20.2472C110.973 20.7316 111.166 21.1675 111.504 21.5065C111.841 21.8456 112.275 22.0392 112.757 22.0392Z" fill="#007167"/>
<path d="M146.845 37.0543V31.9687C146.845 29.7406 146.314 28.0454 145.254 26.883C144.193 25.7206 142.554 25.1394 140.336 25.1394H133.153V33.9544H128.959H116.473H114.4V25.1394H111.122V33.9544H106.349H95.5503H93.3327V31.7748C93.3327 27.3673 91.2114 25.1394 86.9209 25.1394H73.8563V17.729H70.5297V33.9059H66.191H50.2819H48.1126V25.0909H40.8812C38.6636 25.0909 37.0245 25.6721 35.9639 26.8346C34.9034 27.997 34.3731 29.6923 34.3731 31.9202V33.9059H30.0824H15.8608H14.8002H13.6914H10.3649H8.53299H3.27821V32.2593C3.27821 30.903 3.56746 29.886 4.19418 29.2078C4.82091 28.5299 5.78509 28.1908 7.13494 28.1908H10.3167V32.5014H13.6431V25.0909H6.50821C4.2906 25.0909 2.65151 25.6721 1.5909 26.8346C0.530299 27.997 0 29.6923 0 31.9202V37.0058H15.8608H30.0824H50.2337H66.1428H95.5021H106.301H116.425H128.911H146.845V37.0543ZM136.48 28.1908H139.613C140.963 28.1908 141.976 28.5299 142.554 29.2078C143.181 29.886 143.47 30.903 143.47 32.2593V33.9544H136.431V28.1908H136.48ZM44.738 33.9544H37.6994V32.2593C37.6994 30.903 37.9887 29.886 38.6155 29.2078C39.2421 28.5299 40.2063 28.1908 41.5563 28.1908H44.6898V33.9544H44.738ZM90.0062 33.9544H73.8563V28.2393H86.1495C87.4993 28.2393 88.4636 28.5299 89.0903 29.1594C89.7169 29.789 90.0062 30.7093 90.0062 31.9687V33.9544Z" fill="#007167"/>
<path d="M166.082 21.7493C166.371 21.8945 166.661 21.9914 166.998 21.9914C167.48 21.9914 167.914 21.7977 168.252 21.4587C168.589 21.1196 168.782 20.6837 168.782 20.1994C168.782 19.715 168.589 19.2791 168.252 18.8917C167.914 18.5526 167.48 18.3589 166.998 18.3589C166.661 18.3589 166.371 18.4557 166.082 18.6011C165.793 18.7948 165.552 18.9885 165.407 19.2791C165.214 19.5697 165.166 19.8603 165.166 20.1994C165.166 20.5384 165.263 20.829 165.407 21.1196C165.552 21.3618 165.793 21.604 166.082 21.7493Z" fill="#007167"/>
<path d="M172.977 37.0537H190.621H198.672V25.1388H195.394V33.9538H190.621H172.977H172.35H170.759H167.433H166.083H160.394V32.2587C160.394 30.9026 160.684 29.8854 161.31 29.2072C161.937 28.5293 162.901 28.1902 164.251 28.1902H167.385V32.5008H170.711V25.0903H163.528C161.31 25.0903 159.671 25.6715 158.611 26.8339C157.55 27.9966 157.02 29.6917 157.02 31.9196V37.0052H172.977V37.0537Z" fill="#007167"/>
<path d="M162.318 22.0392C162.8 22.0392 163.234 21.8456 163.619 21.5065C163.957 21.1675 164.15 20.7316 164.15 20.2472C164.15 19.7629 163.957 19.327 163.619 18.9395C163.282 18.6005 162.848 18.4067 162.318 18.4067C161.836 18.4067 161.402 18.6005 161.064 18.9395C160.679 19.2786 160.534 19.7145 160.534 20.2472C160.534 20.7316 160.727 21.1675 161.064 21.5065C161.45 21.8456 161.836 22.0392 162.318 22.0392Z" fill="#007167"/>
<path d="M197.029 22.0392C197.511 22.0392 197.945 21.8456 198.33 21.5065C198.668 21.1675 198.861 20.7316 198.861 20.2472C198.861 19.7145 198.668 19.2786 198.33 18.9395C197.993 18.6005 197.559 18.4067 197.029 18.4067C196.547 18.4067 196.113 18.6005 195.775 18.9395C195.438 19.327 195.245 19.7629 195.245 20.2472C195.245 20.7316 195.438 21.1675 195.775 21.5065C196.113 21.8456 196.547 22.0392 197.029 22.0392Z" fill="#007167"/>
<path d="M231.401 25.0909H224.218V33.9059H216.6H209.224H208.935C208.116 33.9059 207.537 33.7123 207.151 33.3247C206.766 32.9374 206.573 32.3077 206.573 31.4842V17.729H203.246V31.1453C203.246 32.5499 203.439 33.6638 203.777 34.5356C204.162 35.4074 204.741 36.0371 205.609 36.4246C206.476 36.812 207.634 37.0543 209.08 37.0543H209.224H216.6H237.909V31.9687C237.909 29.7406 237.379 28.0454 236.318 26.883C235.257 25.6721 233.619 25.0909 231.401 25.0909ZM234.582 33.9544H227.543V28.2393H230.678C232.027 28.2393 232.99 28.5782 233.619 29.2563C234.246 29.9344 234.534 30.9514 234.534 32.3077V33.9544H234.582Z" fill="#007167"/>
<path d="M245.137 17.729H241.812V37.0058H245.137V17.729Z" fill="#007167"/>
<path d="M243.311 14.8225V13.3695C243.311 12.982 243.407 12.7398 243.551 12.5461C243.696 12.3523 243.938 12.3039 244.274 12.3039H245.818V10.9478H244.372C243.503 10.9478 242.829 11.1415 242.442 11.4805C242.058 11.868 241.864 12.4492 241.864 13.321V14.774V16.0818H246.156V14.8225H243.311Z" fill="#007167"/>
<path d="M11.6666 99.1472V87.9589L7.27956 99.1472H5.78509L1.44627 87.9589V99.1472H0V86.748H2.55507L6.60463 97.2097L10.606 86.748H13.1611V99.1472H11.6666Z" fill="#9D9D9C"/>
<path d="M21.6913 99.1467C21.6431 98.9528 21.6431 98.7591 21.5949 98.517C21.5467 98.2749 21.5467 98.081 21.5467 97.8873C21.161 98.42 20.7753 98.7591 20.2932 99.0013C19.8111 99.1951 19.2808 99.2919 18.6541 99.2919C18.2684 99.2919 17.8828 99.2434 17.4971 99.1467C17.1114 99.0497 16.8222 98.9045 16.5329 98.6622C16.2437 98.4685 16.0508 98.1779 15.858 97.8873C15.7134 97.5482 15.6169 97.2092 15.6169 96.7249C15.6169 96.0952 15.7616 95.5625 16.099 95.175C16.4365 94.7874 16.8222 94.4968 17.3043 94.3032C17.7863 94.1095 18.3167 93.9641 18.8952 93.9156C19.4737 93.8674 20.004 93.8189 20.5343 93.8189C20.6789 93.8189 20.8235 93.8189 20.9682 93.8189C21.1128 93.8189 21.2574 93.8189 21.3538 93.8674V93.3344C21.3538 92.6565 21.2092 92.172 20.92 91.7847C20.6307 91.3971 20.1486 91.2517 19.4255 91.2517C18.8952 91.2517 18.4613 91.3487 18.172 91.5908C17.8828 91.8329 17.6899 92.2205 17.6417 92.8017H16.1473C16.1473 92.3174 16.2919 91.9299 16.4847 91.6393C16.6775 91.3002 16.9186 91.0581 17.2079 90.8644C17.4971 90.6705 17.8346 90.5253 18.2202 90.4284C18.6059 90.3317 18.9916 90.2832 19.3773 90.2832C20.4861 90.2832 21.3056 90.5253 21.8359 90.9611C22.3662 91.4456 22.6555 92.2205 22.6555 93.3829V96.5795C22.6555 97.1607 22.7037 97.6937 22.752 98.1294C22.8 98.6137 22.8965 98.9043 22.9448 99.0982H21.6913V99.1467ZM21.402 94.7874C21.2092 94.7874 21.0646 94.7392 20.9682 94.7392H20.6307C20.2932 94.7392 19.9076 94.7392 19.5219 94.7874C19.088 94.8359 18.7505 94.8844 18.3649 95.0298C18.0274 95.175 17.6899 95.3688 17.4489 95.611C17.2079 95.8531 17.1114 96.1922 17.1114 96.6764C17.1114 96.9186 17.1596 97.1607 17.2561 97.403C17.3525 97.5967 17.4971 97.7904 17.6899 97.9358C17.8828 98.081 18.0756 98.1779 18.3167 98.2264C18.5577 98.2749 18.7988 98.3231 19.0398 98.3231C19.5701 98.3231 20.004 98.2264 20.3414 98.0327C20.6307 97.8388 20.8717 97.5482 21.0646 97.2576C21.2092 96.9186 21.3538 96.5312 21.402 96.1437C21.3538 95.6594 21.402 95.2234 21.402 94.7874Z" fill="#9D9D9C"/>
<path d="M31.6278 99.1472L31.5312 97.8396C31.1457 98.3239 30.7599 98.7114 30.3743 98.9536C29.9403 99.1957 29.4101 99.2926 28.7833 99.2926C28.1567 99.2926 27.5781 99.1472 27.096 98.9051C26.6139 98.663 26.2281 98.3239 25.9391 97.8879C25.6498 97.4521 25.4087 96.9678 25.264 96.4349C25.1195 95.9021 25.0229 95.3209 25.0229 94.7397C25.0229 94.1585 25.1195 93.6258 25.264 93.0931C25.4087 92.5603 25.6498 92.0759 25.9391 91.6883C26.2281 91.2525 26.6139 90.9619 27.096 90.6713C27.5781 90.4292 28.1084 90.2838 28.7351 90.2838C29.3619 90.2838 29.9403 90.4292 30.3743 90.6229C30.8081 90.865 31.1937 91.2525 31.5312 91.7853V86.6514H33.0257V96.6288C33.0257 97.0161 33.0257 97.4521 33.0257 97.8879C33.0257 98.3239 33.0257 98.7599 33.074 99.1472H31.6278ZM31.5312 94.8367C31.5312 94.4491 31.483 94.0133 31.3867 93.5773C31.2902 93.1415 31.1457 92.8025 30.9527 92.4634C30.7599 92.1243 30.4706 91.8822 30.1333 91.6883C29.7957 91.4947 29.4101 91.3977 28.9281 91.3977C28.446 91.3977 28.0602 91.4946 27.7709 91.7368C27.4816 91.9307 27.2406 92.2213 27.0478 92.5601C26.855 92.8992 26.7585 93.2383 26.6622 93.6743C26.5657 94.0616 26.5657 94.4976 26.5657 94.8851C26.5657 95.3209 26.6139 95.7085 26.7104 96.1443C26.8067 96.5318 26.9515 96.9194 27.1443 97.2584C27.3371 97.5973 27.6264 97.8396 27.9156 98.0333C28.253 98.227 28.6388 98.3239 29.1208 98.3239C29.6029 98.3239 29.9885 98.227 30.2778 98.0333C30.5671 97.8396 30.8081 97.549 31.0009 97.2584C31.1937 96.9194 31.3385 96.5803 31.3867 96.1443C31.483 95.6115 31.5312 95.224 31.5312 94.8367Z" fill="#9D9D9C"/>
<path d="M35.7258 86.748H37.4131V88.298H35.7258V86.748ZM35.8221 90.4774H37.3166V99.1472H35.8221V90.4774Z" fill="#9D9D9C"/>
<path d="M45.9908 99.1463V94.3512C45.9908 93.9639 45.9908 93.6248 45.9426 93.2858C45.8946 92.9467 45.8463 92.6561 45.7015 92.414C45.557 92.1718 45.3642 91.9297 45.0749 91.7843C44.7856 91.6391 44.4481 91.5422 43.966 91.5422C43.4839 91.5422 43.0984 91.6391 42.8091 91.8328C42.5198 92.0264 42.2787 92.2688 42.0859 92.6076C41.8932 92.8982 41.7967 93.2858 41.7002 93.6733C41.6039 94.0609 41.6039 94.4482 41.6039 94.8842V99.1947H40.1094V92.753C40.1094 92.5594 40.1094 92.3655 40.1094 92.1718C40.1094 91.978 40.1094 91.7358 40.1094 91.5422C40.1094 91.3485 40.1094 91.1546 40.1094 90.961C40.1094 90.7673 40.1094 90.6219 40.1094 90.5249H41.6039L41.6521 91.9297C41.9894 91.4452 42.4235 91.0579 42.8573 90.8155C43.2911 90.5734 43.8215 90.4282 44.4481 90.4282C45.557 90.4282 46.3766 90.7188 46.8105 91.3C47.2925 91.8812 47.4853 92.7046 47.4853 93.77V99.1463H45.9908Z" fill="#9D9D9C"/>
<path d="M55.7283 99.1467C55.68 98.9528 55.68 98.7591 55.632 98.517C55.5838 98.2749 55.5838 98.081 55.5838 97.8873C55.198 98.42 54.8124 98.7591 54.3303 99.0013C53.8482 99.1951 53.3179 99.2919 52.6913 99.2919C52.3055 99.2919 51.9199 99.2434 51.5341 99.1467C51.1485 99.0497 50.8592 98.9045 50.57 98.6622C50.2807 98.4685 50.0879 98.1779 49.8951 97.8873C49.7503 97.5482 49.6541 97.2092 49.6541 96.7249C49.6541 96.0952 49.7986 95.5625 50.1361 95.175C50.4737 94.7874 50.8592 94.4968 51.3413 94.3032C51.8234 94.1095 52.3537 93.9641 52.9323 93.9156C53.5107 93.8674 54.041 93.8189 54.5714 93.8189C54.7159 93.8189 54.8606 93.8189 55.0052 93.8189C55.1499 93.8189 55.2945 93.8189 55.391 93.8674V93.3344C55.391 92.6565 55.2462 92.172 54.9569 91.7847C54.6679 91.3971 54.1858 91.2517 53.4624 91.2517C52.9323 91.2517 52.4983 91.3487 52.2092 91.5908C51.9199 91.8329 51.7269 92.2205 51.6789 92.8017H50.2326C50.2326 92.3174 50.3772 91.9299 50.57 91.6393C50.7627 91.3002 51.0038 91.0581 51.2931 90.8644C51.5824 90.6705 51.9199 90.5253 52.3055 90.4284C52.6913 90.3317 53.0769 90.2832 53.4624 90.2832C54.5714 90.2832 55.391 90.5253 55.9211 90.9611C56.4514 91.4456 56.7407 92.2205 56.7407 93.3829V96.5795C56.7407 97.1607 56.789 97.6937 56.8372 98.1294C56.8855 98.6137 56.9818 98.9043 57.03 99.0982H55.7283V99.1467ZM55.439 94.7874C55.2462 94.7874 55.1017 94.7392 55.0052 94.7392H54.6679C54.3303 94.7392 53.9928 94.7392 53.5589 94.7874C53.1734 94.8359 52.7876 94.8844 52.402 95.0298C52.0644 95.175 51.7269 95.3688 51.4859 95.611C51.2448 95.8531 51.1485 96.1922 51.1485 96.6764C51.1485 96.9186 51.1968 97.1607 51.2931 97.403C51.3896 97.5967 51.5341 97.7904 51.7269 97.9358C51.9199 98.081 52.1127 98.1779 52.3537 98.2264C52.5948 98.2749 52.8358 98.3231 53.0769 98.3231C53.6072 98.3231 54.041 98.2264 54.3786 98.0327C54.6679 97.8388 54.9089 97.5482 55.1017 97.2576C55.2462 96.9186 55.391 96.5312 55.439 96.1437C55.391 95.6594 55.439 95.2234 55.439 94.7874Z" fill="#9D9D9C"/>
<path d="M65.514 99.1472V94.3522C65.514 93.9646 65.514 93.6255 65.4658 93.2867C65.4177 92.9476 65.3695 92.657 65.2247 92.3664C65.0802 92.1243 64.8874 91.8822 64.5981 91.7367C64.3088 91.5913 63.9713 91.4946 63.4892 91.4946C63.0554 91.4946 62.6698 91.5913 62.3805 91.7367C62.0912 91.9304 61.8502 92.1243 61.6574 92.4149C61.4646 92.7055 61.3198 93.0443 61.2716 93.3834C61.1753 93.771 61.1271 94.1585 61.1271 94.5458V99.1472H59.6326V86.748H61.1271V91.8337C61.4646 91.3492 61.8502 90.9619 62.3323 90.7195C62.7661 90.4774 63.2964 90.3322 63.9233 90.3322C64.5016 90.3322 64.9837 90.4289 65.3695 90.5743C65.7551 90.7195 66.0926 90.9619 66.3337 91.2525C66.5747 91.5431 66.7675 91.8819 66.864 92.3179C66.9603 92.7537 67.0085 93.1897 67.0085 93.771V99.1472H65.514Z" fill="#9D9D9C"/>
<path d="M82.0977 99.1466C81.9047 98.6623 81.7602 98.1296 81.7602 97.6451C81.7119 97.1124 81.6637 96.6281 81.6156 96.0954C81.5674 95.6594 81.5191 95.2233 81.4709 94.8845C81.4226 94.5454 81.3263 94.2548 81.1816 94.0609C81.0371 93.8188 80.796 93.6736 80.5067 93.5767C80.2174 93.4797 79.7836 93.4315 79.3015 93.4315H76.6501V99.195H75.0591V86.7959H79.4461C79.9281 86.7959 80.4585 86.8444 80.9405 86.9413C81.4226 87.038 81.8567 87.1834 82.2905 87.4256C82.6761 87.6677 83.0136 87.9583 83.2547 88.3458C83.4957 88.7332 83.6402 89.2177 83.6402 89.8473C83.6402 90.6707 83.3992 91.3003 82.9654 91.7846C82.5315 92.2689 81.9047 92.6079 81.1816 92.8018C81.5674 92.8985 81.9047 92.9955 82.1457 93.1407C82.3868 93.2861 82.6278 93.4797 82.7726 93.6736C82.9171 93.8673 83.0619 94.1579 83.1099 94.4C83.2064 94.6906 83.2547 94.9812 83.2547 95.3203C83.3029 95.7078 83.3509 96.1436 83.3509 96.5796C83.3509 97.0154 83.4474 97.4514 83.544 97.9357C83.5922 98.1778 83.6402 98.3717 83.6885 98.5654C83.7367 98.759 83.8332 98.9529 83.9295 99.0981H82.0977V99.1466ZM81.9047 89.9925C81.9047 89.5567 81.8084 89.2177 81.6637 88.9271C81.5191 88.6849 81.2781 88.4426 80.9888 88.2974C80.6995 88.152 80.4102 88.0552 80.0729 88.0068C79.7353 87.9583 79.3978 87.9583 79.0122 87.9583H76.5536V92.1721H78.5784C78.964 92.1721 79.3498 92.1721 79.7353 92.1237C80.1211 92.0752 80.5067 91.9783 80.796 91.8331C81.1333 91.6877 81.3744 91.4455 81.5674 91.1549C81.8084 90.8643 81.9047 90.477 81.9047 89.9925Z" fill="#9D9D9C"/>
<path d="M87.1129 95.0791V95.2728C87.1129 95.6603 87.1611 96.0476 87.2576 96.4352C87.3539 96.8227 87.5469 97.1133 87.7397 97.4039C87.9325 97.6945 88.2218 97.9366 88.5594 98.082C88.8967 98.2272 89.2825 98.3242 89.7163 98.3242C90.3429 98.3242 90.825 98.1303 91.2108 97.7914C91.5964 97.4524 91.8374 96.9679 91.9339 96.3384H93.3802C93.1874 97.3554 92.8016 98.1303 92.0784 98.6148C91.4036 99.099 90.584 99.3412 89.5715 99.3412C88.8967 99.3412 88.3183 99.2445 87.836 99.0023C87.3539 98.8084 86.9201 98.4694 86.5828 98.082C86.2452 97.6945 86.0042 97.2102 85.8594 96.6773C85.7149 96.1446 85.6184 95.5634 85.6184 94.9337C85.6184 94.304 85.7149 93.6745 85.8594 93.0933C86.0042 92.5121 86.2935 92.0277 86.6308 91.6401C86.9684 91.2043 87.4022 90.9137 87.8843 90.6716C88.4146 90.4295 88.9932 90.3325 89.7163 90.3325C90.4394 90.3325 91.018 90.4777 91.5001 90.7201C91.9822 90.9622 92.3677 91.3495 92.657 91.7855C92.9463 92.2213 93.1391 92.7058 93.2356 93.287C93.3319 93.8682 93.4284 94.4494 93.4284 95.0791H87.1129ZM91.9339 94.0619C91.9339 93.7228 91.8857 93.3837 91.7892 93.0449C91.6929 92.7058 91.5481 92.4152 91.3553 92.1731C91.1625 91.9307 90.9215 91.7371 90.6322 91.5434C90.3429 91.398 90.0056 91.3013 89.6198 91.3013C89.2342 91.3013 88.8967 91.398 88.5594 91.5434C88.2701 91.6886 88.029 91.8825 87.788 92.1731C87.595 92.4152 87.4022 92.7058 87.3059 93.0449C87.2094 93.3837 87.1129 93.7228 87.0649 94.0619H91.9339Z" fill="#9D9D9C"/>
<path d="M103.17 90.4777C103.122 90.9622 103.122 91.4949 103.122 91.9792C103.122 92.4637 103.122 92.9964 103.122 93.4807V96.6773C103.122 97.5008 103.073 98.2757 103.025 99.0023C102.977 99.7287 102.832 100.358 102.543 100.891C102.302 101.424 101.868 101.86 101.338 102.15C100.808 102.441 100.036 102.586 99.072 102.586C98.6382 102.586 98.2044 102.538 97.7706 102.49C97.3365 102.393 96.9509 102.296 96.6134 102.054C96.2761 101.86 95.9868 101.569 95.794 101.23C95.601 100.891 95.4564 100.455 95.4564 99.9224H96.9027C96.9027 100.213 96.9509 100.504 97.0955 100.697C97.2402 100.891 97.3848 101.085 97.5776 101.182C97.7706 101.327 98.0116 101.375 98.2526 101.472C98.4937 101.521 98.783 101.569 99.024 101.569C99.4578 101.569 99.8434 101.521 100.181 101.375C100.47 101.23 100.76 101.085 100.952 100.843C101.145 100.601 101.29 100.358 101.386 100.019C101.483 99.6802 101.579 99.3412 101.579 98.9538C101.579 98.7115 101.627 98.4694 101.627 98.2272V97.5008C100.952 98.5178 100.036 99.0506 98.783 99.0506C98.1561 99.0506 97.5776 98.9538 97.0955 98.7115C96.6134 98.4694 96.2278 98.1788 95.9385 97.7914C95.601 97.4039 95.4082 96.9196 95.2154 96.3867C95.0709 95.854 94.9744 95.2728 94.9744 94.6915C94.9744 94.1103 95.0709 93.5776 95.2154 93.0449C95.3599 92.5119 95.601 92.0277 95.9385 91.6401C96.2278 91.2528 96.6616 90.9137 97.0955 90.6716C97.5776 90.4295 98.1079 90.3325 98.7347 90.3325C100.036 90.3325 101.001 90.8653 101.675 91.9792V90.5262H103.17V90.4777ZM101.627 94.5946C101.627 94.2073 101.579 93.8197 101.483 93.4322C101.386 93.0449 101.242 92.7058 101.049 92.3667C100.856 92.0761 100.567 91.7855 100.277 91.5919C99.9399 91.398 99.6024 91.3013 99.1686 91.3013C98.6865 91.3013 98.3009 91.398 97.9633 91.5919C97.6258 91.7855 97.3848 92.0761 97.192 92.3667C96.9992 92.7058 96.8544 93.0449 96.7582 93.4322C96.6616 93.8197 96.6134 94.2558 96.6134 94.6431C96.6134 95.0306 96.6616 95.4666 96.7582 95.854C96.8544 96.2415 96.9992 96.5806 97.192 96.9194C97.3848 97.2102 97.6741 97.5008 97.9633 97.6945C98.3009 97.8882 98.6865 97.9851 99.1686 97.9851C99.6506 97.9851 100.036 97.8882 100.374 97.6945C100.711 97.5008 100.952 97.2102 101.145 96.9194C101.338 96.5806 101.483 96.2415 101.579 95.8055C101.579 95.4182 101.627 95.0306 101.627 94.5946Z" fill="#9D9D9C"/>
<path d="M105.816 86.748H107.503V88.298H105.816V86.748ZM105.912 90.4774H107.407V99.1472H105.912V90.4774Z" fill="#9D9D9C"/>
<path d="M118.108 94.7874C118.108 95.4171 118.012 96.0468 117.819 96.5795C117.626 97.1125 117.337 97.5967 116.999 98.0325C116.614 98.4685 116.18 98.7591 115.649 99.0013C115.119 99.2434 114.541 99.3403 113.866 99.3403C113.191 99.3403 112.564 99.2434 112.034 99.0013C111.504 98.7591 111.07 98.4685 110.684 98.0325C110.347 97.6452 110.057 97.1607 109.864 96.5795C109.672 95.9983 109.575 95.4171 109.575 94.7392C109.575 94.061 109.672 93.4798 109.864 92.9471C110.057 92.4144 110.347 91.9299 110.684 91.5423C111.07 91.155 111.504 90.8159 112.034 90.6223C112.564 90.3799 113.191 90.2832 113.866 90.2832C114.541 90.2832 115.167 90.3799 115.698 90.6223C116.228 90.8159 116.662 91.155 117.048 91.5423C117.385 91.9299 117.674 92.4144 117.867 92.9471C118.012 93.4798 118.108 94.1095 118.108 94.7874ZM116.517 94.7874C116.517 94.3516 116.469 93.9641 116.373 93.5283C116.276 93.1407 116.132 92.7532 115.89 92.4141C115.698 92.0753 115.408 91.8331 115.071 91.6393C114.734 91.4456 114.3 91.3487 113.818 91.3487C113.336 91.3487 112.95 91.4456 112.564 91.6393C112.227 91.8331 111.937 92.0753 111.745 92.4141C111.552 92.7532 111.359 93.0923 111.262 93.5283C111.166 93.9156 111.118 94.3516 111.118 94.7874C111.118 95.2234 111.166 95.611 111.262 96.0468C111.359 96.4828 111.504 96.8218 111.745 97.1607C111.937 97.4998 112.227 97.7904 112.564 97.9843C112.902 98.1779 113.336 98.3231 113.818 98.3231C114.3 98.3231 114.685 98.2264 115.023 97.9843C115.36 97.7904 115.649 97.4998 115.842 97.1607C116.035 96.8218 116.228 96.4343 116.325 95.9983C116.469 95.611 116.517 95.175 116.517 94.7874Z" fill="#9D9D9C"/>
<path d="M126.119 99.1463V94.3512C126.119 93.9639 126.119 93.6248 126.071 93.2858C126.023 92.9467 125.975 92.6561 125.83 92.414C125.685 92.1718 125.493 91.9297 125.203 91.7843C124.914 91.6391 124.577 91.5422 124.095 91.5422C123.612 91.5422 123.227 91.6391 122.937 91.8328C122.648 92.0264 122.407 92.2688 122.214 92.6076C122.022 92.8982 121.925 93.2858 121.829 93.6733C121.732 94.0609 121.732 94.4482 121.732 94.8842V99.1947H120.238V92.753C120.238 92.5594 120.238 92.3655 120.238 92.1718C120.238 91.978 120.238 91.7358 120.238 91.5422C120.238 91.3485 120.238 91.1546 120.238 90.961C120.238 90.7673 120.238 90.6219 120.238 90.5249H121.732L121.781 91.9297C122.118 91.4452 122.552 91.0579 122.986 90.8155C123.42 90.5734 123.998 90.4282 124.625 90.4282C125.734 90.4282 126.553 90.7188 126.987 91.3C127.469 91.8812 127.662 92.7046 127.662 93.77V99.1463H126.119Z" fill="#9D9D9C"/>
<path d="M135.853 99.1467C135.805 98.9528 135.805 98.7591 135.757 98.517C135.709 98.2749 135.709 98.081 135.709 97.8873C135.323 98.42 134.937 98.7591 134.455 99.0013C133.973 99.1951 133.443 99.2919 132.816 99.2919C132.43 99.2919 132.045 99.2434 131.659 99.1467C131.274 99.0497 130.984 98.9045 130.695 98.6622C130.406 98.4685 130.213 98.1779 130.02 97.8873C129.876 97.5482 129.779 97.2092 129.779 96.7249C129.779 96.0952 129.924 95.5625 130.261 95.175C130.599 94.7874 130.984 94.4968 131.466 94.3032C131.948 94.1095 132.479 93.9641 133.057 93.9156C133.636 93.8674 134.214 93.8189 134.696 93.8189C134.841 93.8189 134.986 93.8189 135.13 93.8189C135.275 93.8189 135.419 93.8189 135.516 93.8674V93.3344C135.516 92.6565 135.371 92.172 135.082 91.7847C134.793 91.3971 134.311 91.2517 133.588 91.2517C133.057 91.2517 132.623 91.3487 132.334 91.5908C132.045 91.8329 131.852 92.2205 131.804 92.8017H130.358C130.358 92.3174 130.502 91.9299 130.695 91.6393C130.888 91.3002 131.129 91.0581 131.418 90.8644C131.707 90.6705 132.045 90.5253 132.43 90.4284C132.816 90.3317 133.202 90.2832 133.588 90.2832C134.696 90.2832 135.516 90.5253 136.046 90.9611C136.577 91.4456 136.866 92.2205 136.866 93.3829V96.5795C136.866 97.1607 136.914 97.6937 136.962 98.1294C137.01 98.6137 137.107 98.9043 137.155 99.0982H135.853V99.1467ZM135.564 94.7874C135.371 94.7874 135.227 94.7392 135.13 94.7392H134.793C134.455 94.7392 134.118 94.7392 133.684 94.7874C133.298 94.8359 132.913 94.8844 132.527 95.0298C132.189 95.175 131.852 95.3688 131.611 95.611C131.37 95.8531 131.274 96.1922 131.274 96.6764C131.274 96.9186 131.322 97.1607 131.418 97.403C131.515 97.5967 131.659 97.7904 131.852 97.9358C132.045 98.081 132.238 98.1779 132.479 98.2264C132.72 98.2749 132.961 98.3231 133.202 98.3231C133.732 98.3231 134.166 98.2264 134.504 98.0327C134.793 97.8388 135.034 97.5482 135.227 97.2576C135.371 96.9186 135.516 96.5312 135.564 96.1437C135.516 95.6594 135.564 95.2234 135.564 94.7874Z" fill="#9D9D9C"/>
<path d="M141.252 86.748H139.758V99.1472H141.252V86.748Z" fill="#9D9D9C"/>
<path d="M160.969 99.1472V87.9589L156.582 99.1472H155.136L150.748 87.9589V99.1472H149.302V86.748H151.857L155.955 97.2097L159.908 86.748H162.463V99.1472H160.969Z" fill="#9D9D9C"/>
<path d="M171.428 99.1463L171.38 97.7902C170.994 98.2745 170.608 98.662 170.175 98.9041C169.741 99.1463 169.21 99.2432 168.584 99.2432C168.005 99.2432 167.523 99.1463 167.137 99.0011C166.752 98.8557 166.414 98.6135 166.173 98.3229C165.932 98.0323 165.739 97.6933 165.643 97.2575C165.547 96.8215 165.498 96.3857 165.498 95.8042V90.4282H166.993V95.223C166.993 95.6106 166.993 95.9497 167.041 96.2887C167.089 96.6278 167.186 96.9184 167.282 97.209C167.427 97.4511 167.619 97.6933 167.909 97.8387C168.198 97.9839 168.535 98.0808 169.018 98.0808C169.451 98.0808 169.837 97.9839 170.175 97.8387C170.464 97.6933 170.705 97.4511 170.898 97.1605C171.09 96.8699 171.235 96.5309 171.283 96.1918C171.38 95.8527 171.428 95.4654 171.428 95.0294V90.4282H172.923V94.6421V96.8699C172.923 97.5963 172.922 98.3714 172.971 99.0978H171.428V99.1463Z" fill="#9D9D9C"/>
<path d="M181.555 99.1463V94.3512C181.555 93.9639 181.555 93.6248 181.507 93.2858C181.459 92.9467 181.411 92.6561 181.266 92.414C181.121 92.1718 180.928 91.9297 180.639 91.7843C180.35 91.6391 180.013 91.5422 179.53 91.5422C179.048 91.5422 178.663 91.6391 178.373 91.8328C178.084 92.0264 177.843 92.2688 177.65 92.6076C177.457 92.8982 177.361 93.2858 177.265 93.6733C177.168 94.0609 177.168 94.4482 177.168 94.8842V99.1947H175.674V92.753C175.674 92.5594 175.674 92.3655 175.674 92.1718C175.674 91.978 175.674 91.7358 175.674 91.5422C175.674 91.3485 175.674 91.1546 175.674 90.961C175.674 90.7673 175.674 90.6219 175.674 90.5249H177.168L177.216 91.9297C177.554 91.4452 177.988 91.0579 178.422 90.8155C178.855 90.5734 179.386 90.4282 180.013 90.4282C181.121 90.4282 181.941 90.7188 182.375 91.3C182.857 91.8812 183.05 92.7046 183.05 93.77V99.1463H181.555Z" fill="#9D9D9C"/>
<path d="M185.702 86.748H187.389V88.298H185.702V86.748ZM185.799 90.4774H187.293V99.1472H185.799V90.4774Z" fill="#9D9D9C"/>
<path d="M196.936 97.5973C196.743 97.9847 196.454 98.3237 196.164 98.5659C195.827 98.808 195.441 99.0019 195.056 99.1471C194.622 99.2925 194.188 99.3409 193.658 99.3409C192.983 99.3409 192.356 99.244 191.874 99.0019C191.344 98.8082 190.91 98.4691 190.572 98.0816C190.235 97.6941 189.945 97.2098 189.753 96.6771C189.56 96.1441 189.463 95.5147 189.463 94.885C189.463 94.2068 189.56 93.6256 189.753 93.0444C189.945 92.4632 190.187 91.979 190.572 91.5429C190.91 91.1072 191.392 90.8166 191.922 90.5742C192.452 90.3321 193.079 90.2354 193.754 90.2354C194.718 90.2354 195.538 90.4775 196.164 90.9617C196.791 91.446 197.177 92.2211 197.273 93.2381H195.827C195.779 92.6086 195.586 92.1242 195.249 91.7851C194.911 91.446 194.429 91.2524 193.802 91.2524C193.272 91.2524 192.886 91.3493 192.501 91.5429C192.163 91.7368 191.874 92.0274 191.681 92.3663C191.488 92.7054 191.344 93.0929 191.247 93.4804C191.151 93.9162 191.103 94.3522 191.103 94.788C191.103 95.2241 191.151 95.6114 191.247 96.0474C191.344 96.4832 191.488 96.8222 191.681 97.1613C191.874 97.5004 192.163 97.7425 192.501 97.9847C192.838 98.1785 193.224 98.2753 193.706 98.2753C194.333 98.2753 194.863 98.0816 195.249 97.6941C195.634 97.3067 195.827 96.8223 195.875 96.1926H197.273H197.322C197.273 96.7738 197.129 97.2098 196.936 97.5973Z" fill="#9D9D9C"/>
<path d="M199.151 86.748H200.839V88.298H199.151V86.748ZM199.248 90.4774H200.742V99.1472H199.248V90.4774Z" fill="#9D9D9C"/>
<path d="M211.634 94.6907C211.634 95.2719 211.537 95.8531 211.393 96.3858C211.248 96.9186 211.007 97.4513 210.67 97.8388C210.332 98.2264 209.947 98.6137 209.465 98.8561C208.982 99.0982 208.404 99.2434 207.777 99.2434C207.151 99.2434 206.62 99.1467 206.235 98.9045C205.801 98.6622 205.415 98.2749 205.077 97.7904V102.343H203.583V92.8986C203.583 92.5111 203.583 92.0753 203.583 91.6877C203.583 91.2517 203.583 90.8644 203.535 90.4284H205.029L205.077 91.9299C205.415 91.3487 205.801 90.9611 206.283 90.6705C206.765 90.4284 207.343 90.2832 208.018 90.2832C208.645 90.2832 209.175 90.4284 209.657 90.6223C210.139 90.8644 210.477 91.2035 210.814 91.5908C211.104 91.9783 211.345 92.4626 211.489 92.9956C211.537 93.5768 211.634 94.1095 211.634 94.6907ZM210.043 94.7874C210.043 94.4001 209.995 94.0125 209.947 93.625C209.85 93.2377 209.754 92.8501 209.561 92.5111C209.368 92.172 209.127 91.9299 208.838 91.6877C208.548 91.4941 208.163 91.3487 207.681 91.3487C207.199 91.3487 206.813 91.4456 206.476 91.6393C206.138 91.8331 205.897 92.1235 205.704 92.4141C205.511 92.7532 205.367 93.0923 205.27 93.5283C205.174 93.9156 205.126 94.3516 205.126 94.7392C205.126 95.1265 205.174 95.514 205.222 95.9498C205.318 96.3374 205.415 96.7249 205.608 97.064C205.801 97.403 206.042 97.6452 206.331 97.8388C206.62 98.0325 207.006 98.1294 207.488 98.1294C207.97 98.1294 208.404 98.0325 208.741 97.8388C209.079 97.6452 209.32 97.3546 209.513 97.064C209.706 96.7249 209.85 96.3858 209.947 95.9498C209.995 95.611 210.043 95.175 210.043 94.7874Z" fill="#9D9D9C"/>
<path d="M219.256 99.1467C219.208 98.9528 219.208 98.7591 219.16 98.517C219.112 98.2749 219.112 98.081 219.112 97.8873C218.726 98.42 218.339 98.7591 217.858 99.0013C217.376 99.1951 216.845 99.2919 216.219 99.2919C215.833 99.2919 215.447 99.2434 215.062 99.1467C214.676 99.0497 214.387 98.9045 214.098 98.6622C213.808 98.4685 213.615 98.1779 213.422 97.8873C213.278 97.5482 213.181 97.2092 213.181 96.7249C213.181 96.0952 213.326 95.5625 213.663 95.175C214.001 94.7874 214.387 94.4968 214.869 94.3032C215.351 94.1095 215.881 93.9641 216.46 93.9156C217.038 93.8674 217.569 93.8189 218.099 93.8189C218.243 93.8189 218.387 93.8189 218.534 93.8189C218.678 93.8189 218.822 93.8189 218.918 93.8674V93.3344C218.918 92.6565 218.774 92.172 218.483 91.7847C218.195 91.3971 217.713 91.2517 216.99 91.2517C216.46 91.2517 216.026 91.3487 215.737 91.5908C215.447 91.8329 215.254 92.2205 215.206 92.8017H213.76C213.76 92.3174 213.905 91.9299 214.098 91.6393C214.29 91.3002 214.531 91.0581 214.821 90.8644C215.11 90.6705 215.447 90.5253 215.833 90.4284C216.219 90.3317 216.604 90.2832 216.99 90.2832C218.099 90.2832 218.918 90.5253 219.448 90.9611C219.979 91.4456 220.267 92.2205 220.267 93.3829V96.5795C220.267 97.1607 220.317 97.6937 220.365 98.1294C220.413 98.6137 220.51 98.9043 220.558 99.0982H219.256V99.1467ZM218.918 94.7874C218.726 94.7874 218.582 94.7392 218.483 94.7392H218.147C217.809 94.7392 217.424 94.7392 217.038 94.7874C216.604 94.8359 216.267 94.8844 215.881 95.0298C215.544 95.175 215.206 95.3688 214.965 95.611C214.724 95.8531 214.628 96.1922 214.628 96.6764C214.628 96.9186 214.676 97.1607 214.772 97.403C214.869 97.5967 215.013 97.7904 215.206 97.9358C215.399 98.081 215.592 98.1779 215.833 98.2264C216.074 98.2749 216.315 98.3231 216.556 98.3231C217.086 98.3231 217.52 98.2264 217.858 98.0327C218.147 97.8388 218.387 97.5482 218.582 97.2576C218.726 96.9186 218.87 96.5312 218.918 96.1437C218.918 95.6594 218.918 95.2234 218.918 94.7874Z" fill="#9D9D9C"/>
<path d="M224.653 86.748H223.16V99.1472H224.653V86.748Z" fill="#9D9D9C"/>
<path d="M227.398 86.748H229.086V88.298H227.398V86.748ZM227.446 90.4774H228.942V99.1472H227.446V90.4774Z" fill="#9D9D9C"/>
<path d="M234.438 99.2443C233.764 99.2443 233.233 99.0991 232.849 98.76C232.51 98.4694 232.318 97.9365 232.318 97.2101V91.4948H230.631V90.4293H232.318V88.7342L233.812 88.1045V90.4293H235.74V91.4948H233.812V96.6289C233.812 96.871 233.812 97.1131 233.86 97.307C233.86 97.5007 233.956 97.6459 234.004 97.7428C234.102 97.8398 234.198 97.9365 234.342 97.985C234.486 98.0334 234.681 98.0819 234.969 98.0819C235.113 98.0819 235.259 98.0819 235.355 98.0334C235.499 98.0334 235.596 97.985 235.788 97.985V99.1474C235.307 99.1958 234.873 99.2443 234.438 99.2443Z" fill="#9D9D9C"/>
<path d="M240.226 102.392H238.73L240.129 99.1473L236.466 90.4775H238.202L240.9 97.5489L243.601 90.4775H245.142L240.226 102.392Z" fill="#9D9D9C"/>
<path d="M346.235 111.376L346.185 110.262C345.318 92.632 341.51 77.2301 334.567 63.0873L333.026 59.939L331.482 63.0873C324.539 77.1816 320.732 92.632 319.865 110.262L319.815 111.376C324.107 112.054 328.493 112.442 333.026 112.442C337.556 112.442 341.991 112.054 346.235 111.376Z" fill="#007167"/>
<path d="M288.238 47.0556C294.698 55.483 304.148 68.657 311.139 85.5606L313.211 90.5978L314.416 85.27C317.117 73.3067 321.359 62.4575 327.337 52.2379L327.867 51.3176L327.241 50.3974C323.623 45.0211 319.575 39.9357 314.512 34.3658C310.896 30.5395 306.945 26.7132 302.846 23.0806L301.641 22.0151L300.484 23.1775C294.506 29.1348 289.733 35.3828 285.827 42.2605L285.249 43.2775L286.022 44.1978C286.744 45.1665 287.467 46.1353 288.238 47.0556Z" fill="#00958A"/>
<path d="M309.506 109.052L309.362 108.471C303.432 83.7212 291.428 65.8491 282.944 54.5639L281.064 52.0454L279.955 54.9999C276.579 63.9116 274.313 74.0344 273.156 85.1742C281.883 96.1688 294.561 104.645 309.506 109.052Z" fill="#007167"/>
<path d="M320.875 28.4086C324.973 32.913 328.541 37.1753 331.626 41.4374L333.023 43.3264L334.423 41.4374C337.556 37.1753 341.027 32.9615 345.174 28.457C348.643 24.8244 352.405 21.1435 356.309 17.6563L357.852 16.2517L356.213 14.9924C346.763 7.67883 338.086 3.36821 333.796 1.43084L333.071 1.0918L332.349 1.43084C328.01 3.36821 319.382 7.72727 309.932 14.9924L308.293 16.2517L309.836 17.6563C313.692 21.1435 317.404 24.7762 320.875 28.4086Z" fill="#6ABF4B"/>
<path d="M392.998 85.1742C391.793 74.0344 389.527 63.8631 386.152 54.9999L385.045 52.0454L383.163 54.5639C374.678 65.8491 362.722 83.6727 356.744 108.471L356.6 109.052C371.497 104.645 384.224 96.1688 392.998 85.1742Z" fill="#007167"/>
<path d="M351.54 34.4635C346.525 39.9364 342.381 45.1675 338.813 50.4468L338.187 51.3671L338.715 52.2871C344.693 62.5553 348.887 73.3561 351.636 85.3192L352.841 90.647L354.913 85.6098C361.904 68.7064 371.305 55.5807 377.766 47.1532C378.537 46.1845 379.307 45.2642 380.078 44.2957L380.851 43.3754L380.272 42.3582C376.366 35.4805 371.594 29.2326 365.616 23.2752L364.459 22.1128L363.253 23.1783C359.107 26.8109 355.203 30.5887 351.54 34.4635Z" fill="#00958A"/>
</svg>
