<svg width="99" height="131" viewBox="0 0 99 131" fill="none" xmlns="http://www.w3.org/2000/svg">
<g filter="url(#filter0_d_366_4042)">
<rect x="4" width="91" height="39" rx="11.7637" fill="black" fill-opacity="0.32" shape-rendering="crispEdges"/>
<rect x="4.36762" y="0.367617" width="90.2648" height="38.2648" rx="11.3961" stroke="#868E96" stroke-width="0.735234" shape-rendering="crispEdges"/>
<path d="M37.92 28.608C33.84 29.112 33.288 27.216 29.832 27.216H29.232C24.36 27.216 22.008 24 22.008 19.104C22.008 13.68 25.488 10.584 29.688 10.584C34.536 10.584 36.912 13.8 36.912 18.696C36.912 22.104 35.52 24.864 33 25.968C34.584 25.944 35.592 26.928 37.92 26.664V28.608ZM34.56 19.032C34.56 15.144 32.88 12.504 29.472 12.504C26.664 12.504 24.36 14.76 24.36 18.744C24.36 22.656 26.016 25.272 29.448 25.272C32.232 25.272 34.56 23.016 34.56 19.032ZM49.6584 27H47.5704C47.5704 26.28 47.6184 25.176 47.7624 24.48H47.7144C47.0184 26.112 45.5544 27.216 43.5144 27.216C40.7784 27.216 39.9384 25.512 39.9384 23.4V15.072H42.0744V22.776C42.0744 24.432 42.5304 25.416 44.1144 25.416C46.0824 25.416 47.4984 23.424 47.4984 20.784V15.072H49.6584V27ZM64.0631 20.472C64.0631 24.672 61.6871 27.168 57.8471 27.168C56.1911 27.168 55.0151 27.024 53.7431 26.688V9.48H55.9031V15.264C55.9031 15.96 55.8311 16.896 55.6871 17.496L55.7351 17.52C56.3831 15.864 57.8711 14.856 59.6711 14.856C62.4791 14.856 64.0631 16.824 64.0631 20.472ZM61.8071 20.664C61.8071 18.096 60.9671 16.632 59.1671 16.632C57.0071 16.632 55.9031 19.152 55.9031 21.24V25.176C56.5031 25.368 57.1751 25.464 58.0151 25.464C60.2711 25.464 61.8071 24.096 61.8071 20.664ZM75.5979 27H73.4859C73.4859 26.136 73.5099 25.296 73.6059 24.624L73.5819 24.6C73.0059 26.088 71.4699 27.216 69.5259 27.216C67.5339 27.216 66.2139 25.92 66.2139 24C66.2139 21.432 68.8059 19.896 73.3659 19.896V19.344C73.3659 17.448 72.7419 16.536 70.8459 16.536C69.7179 16.536 68.2779 16.92 67.2459 17.4L66.8379 15.696C67.9899 15.216 69.5739 14.856 71.1339 14.856C74.4699 14.856 75.5259 16.44 75.5259 19.032V23.568C75.5259 24.672 75.5499 25.944 75.5979 27ZM73.3659 21.72V21.408C69.4299 21.408 68.3259 22.488 68.3259 23.712C68.3259 24.72 69.0459 25.512 70.1499 25.512C72.0699 25.512 73.3659 23.592 73.3659 21.72Z" fill="#F3FCF6"/>
</g>
<mask id="path-4-outside-1_366_4042" maskUnits="userSpaceOnUse" x="20" y="46.5" width="59" height="76" fill="black">
<rect fill="white" x="20" y="46.5" width="59" height="76"/>
<path d="M49.5 48.5C64.6878 48.5 77 60.8122 77 76C77 85.0504 72.6271 93.0785 65.8799 98.0898C60.6982 101.985 53.3101 108.155 51.6211 118.129C51.4434 119.178 50.5638 119.991 49.5 119.991C48.4362 119.991 47.5566 119.178 47.3789 118.129C45.6898 108.155 38.3008 101.985 33.1191 98.0898C26.3723 93.0784 22 85.0501 22 76C22 60.8122 34.3122 48.5 49.5 48.5Z"/>
</mask>
<path d="M49.5 48.5C64.6878 48.5 77 60.8122 77 76C77 85.0504 72.6271 93.0785 65.8799 98.0898C60.6982 101.985 53.3101 108.155 51.6211 118.129C51.4434 119.178 50.5638 119.991 49.5 119.991C48.4362 119.991 47.5566 119.178 47.3789 118.129C45.6898 108.155 38.3008 101.985 33.1191 98.0898C26.3723 93.0784 22 85.0501 22 76C22 60.8122 34.3122 48.5 49.5 48.5Z" fill="#007367"/>
<path d="M65.8799 98.0898L64.6873 96.4842L64.6781 96.4912L65.8799 98.0898ZM51.6211 118.129L53.593 118.463L53.593 118.463L51.6211 118.129ZM47.3789 118.129L45.407 118.463L45.407 118.463L47.3789 118.129ZM33.1191 98.0898L34.321 96.4912L34.3117 96.4843L33.1191 98.0898ZM49.5 48.5V50.5C63.5833 50.5 75 61.9167 75 76H77H79C79 59.7076 65.7924 46.5 49.5 46.5V48.5ZM77 76H75C75 84.3906 70.9487 91.8338 64.6874 96.4843L65.8799 98.0898L67.0724 99.6954C74.3056 94.3231 79 85.7102 79 76H77ZM65.8799 98.0898L64.6781 96.4912C59.4744 100.403 51.4798 106.985 49.6492 117.795L51.6211 118.129L53.593 118.463C55.1405 109.325 61.9221 103.567 67.0817 99.6885L65.8799 98.0898ZM51.6211 118.129L49.6492 117.795C49.6367 117.868 49.6002 117.926 49.5618 117.961C49.5278 117.991 49.5082 117.991 49.5 117.991V119.991V121.991C51.6313 121.991 53.2681 120.38 53.593 118.463L51.6211 118.129ZM49.5 119.991V117.991C49.4918 117.991 49.4722 117.991 49.4382 117.961C49.3998 117.926 49.3633 117.868 49.3508 117.795L47.3789 118.129L45.407 118.463C45.7319 120.38 47.3687 121.991 49.5 121.991V119.991ZM47.3789 118.129L49.3508 117.795C47.5201 106.984 39.5245 100.403 34.3209 96.4912L33.1191 98.0898L31.9173 99.6885C37.0771 103.567 43.8595 109.325 45.407 118.463L47.3789 118.129ZM33.1191 98.0898L34.3117 96.4843C28.0508 91.8339 24 84.3904 24 76H22H20C20 85.7098 24.6937 94.323 31.9266 99.6954L33.1191 98.0898ZM22 76H24C24 61.9167 35.4167 50.5 49.5 50.5V48.5V46.5C33.2076 46.5 20 59.7076 20 76H22Z" fill="white" mask="url(#path-4-outside-1_366_4042)"/>
<circle cx="49.5" cy="76" r="24" fill="white" fill-opacity="0.4"/>
<g clip-path="url(#clip0_366_4042)">
<path d="M64.4999 75.9997H51.1666C51.1666 75.67 51.0688 75.3478 50.8857 75.0737C50.7026 74.7996 50.4423 74.586 50.1377 74.4599C49.8332 74.3337 49.4981 74.3007 49.1748 74.365C48.8515 74.4293 48.5545 74.5881 48.3214 74.8212C48.0883 75.0543 47.9296 75.3512 47.8653 75.6745C47.801 75.9978 47.834 76.3329 47.9601 76.6375C48.0863 76.942 48.2999 77.2023 48.574 77.3855C48.8481 77.5686 49.1703 77.6663 49.4999 77.6663V90.9997C53.4782 90.9997 57.2935 89.4193 60.1065 86.6063C62.9196 83.7932 64.4999 79.9779 64.4999 75.9997Z" stroke="white" stroke-width="3.33333" stroke-linecap="round" stroke-linejoin="round"/>
<path d="M56.1667 71.0003C55.4504 70.0452 54.5371 69.2551 53.4889 68.6836C52.4406 68.1122 51.2818 67.7726 50.0908 67.688C48.8999 67.6033 47.7047 67.7756 46.5861 68.1931C45.4676 68.6106 44.4518 69.2635 43.6075 70.1078C42.7633 70.952 42.1103 71.9678 41.6928 73.0864C41.2753 74.2049 41.1031 75.4001 41.1877 76.5911C41.2724 77.782 41.6119 78.9408 42.1834 79.9891C42.7549 81.0374 43.5449 81.9506 44.5001 82.667" stroke="white" stroke-width="3.33333" stroke-linecap="round" stroke-linejoin="round"/>
<path d="M63.6434 71.0003C62.7963 68.613 61.3584 66.4792 59.4638 64.7977C57.5692 63.1163 55.2796 61.942 52.8086 61.3845C50.3376 60.8269 47.7657 60.9042 45.3326 61.6092C42.8996 62.3141 40.6847 63.6238 38.8945 65.416C37.1043 67.2082 35.7972 69.4246 35.0949 71.8584C34.3927 74.2923 34.3183 76.8643 34.8787 79.3347C35.439 81.8051 36.6159 84.0933 38.2995 85.986C39.983 87.8787 42.1185 89.3142 44.5068 90.1586" stroke="white" stroke-width="3.33333" stroke-linecap="round" stroke-linejoin="round"/>
</g>
<defs>
<filter id="filter0_d_366_4042" x="-8" y="-12" width="115" height="63" filterUnits="userSpaceOnUse" color-interpolation-filters="sRGB">
<feFlood flood-opacity="0" result="BackgroundImageFix"/>
<feColorMatrix in="SourceAlpha" type="matrix" values="0 0 0 0 0 0 0 0 0 0 0 0 0 0 0 0 0 0 127 0" result="hardAlpha"/>
<feOffset dy="4"/>
<feGaussianBlur stdDeviation="2"/>
<feComposite in2="hardAlpha" operator="out"/>
<feColorMatrix type="matrix" values="0 0 0 0 0 0 0 0 0 0 0 0 0 0 0 0 0 0 0.25 0"/>
<feBlend mode="normal" in2="BackgroundImageFix" result="effect1_dropShadow_366_4042"/>
<feBlend mode="normal" in="SourceGraphic" in2="effect1_dropShadow_366_4042" result="shape"/>
</filter>
<clipPath id="clip0_366_4042">
<rect width="40" height="40" fill="white" transform="translate(29.5 56)"/>
</clipPath>
</defs>
</svg>
